<svg width="40" height="40" viewBox="0 0 40 40" fill="none" xmlns="http://www.w3.org/2000/svg">
<circle cx="20" cy="20" r="20" fill="#7A5548"/>
<path d="M25.5129 14.4059C25.7894 14.1427 26.1573 13.9972 26.5391 14C26.9208 14.0029 27.2865 14.154 27.559 14.4214C27.8315 14.6888 27.9894 15.0515 27.9995 15.4332C28.0096 15.8148 27.871 16.1854 27.6131 16.4668L19.7817 26.2609C19.647 26.4059 19.4845 26.5223 19.3038 26.6031C19.1232 26.6839 18.9281 26.7274 18.7302 26.7311C18.5323 26.7348 18.3357 26.6985 18.1522 26.6244C17.9686 26.5504 17.8019 26.4401 17.6619 26.3001L12.4685 21.1067C12.3239 20.9719 12.2079 20.8094 12.1274 20.6289C12.047 20.4483 12.0037 20.2534 12.0002 20.0557C11.9967 19.8581 12.0331 19.6617 12.1071 19.4784C12.1812 19.2951 12.2914 19.1286 12.4312 18.9888C12.5709 18.8491 12.7374 18.7389 12.9207 18.6648C13.104 18.5908 13.3004 18.5544 13.498 18.5579C13.6957 18.5614 13.8906 18.6047 14.0712 18.6851C14.2518 18.7656 14.4143 18.8816 14.549 19.0262L18.659 23.1342L25.4756 14.4491C25.4879 14.434 25.501 14.4196 25.5149 14.4059H25.5129Z" fill="white"/>
</svg>
